<svg id="Слой_1" data-name="Слой 1" xmlns="http://www.w3.org/2000/svg" viewBox="0 0 60 120"><defs><style>.cls-1{fill:#b3b3b3;}</style></defs><title>sprite</title><path d="M15,0A15,15,0,1,0,30,15,15,15,0,0,0,15,0Zm7.61,16.63a21.19,21.19,0,0,1,2.05,2.08,5.3,5.3,0,0,1,.74,1.08c.27.55,0,1.16-.46,1.19H21.87a2.36,2.36,0,0,1-2-.8c-.43-.43-.83-.89-1.23-1.35a2.36,2.36,0,0,0-.55-.49.63.63,0,0,0-1,.25A3.34,3.34,0,0,0,16.78,20c0,.74-.25.92-1,.95A7.75,7.75,0,0,1,11.41,20a9.58,9.58,0,0,1-2.94-2.76,37.21,37.21,0,0,1-3.9-6.93c-.24-.55-.06-.83.55-.86,1,0,2,0,3,0a.89.89,0,0,1,.83.61,19,19,0,0,0,2,3.77,3.93,3.93,0,0,0,.77.86c.37.25.61.16.8-.24a3.45,3.45,0,0,0,.18-.8,10.63,10.63,0,0,0-.06-2.76,1.18,1.18,0,0,0-1-1.1c-.31-.07-.25-.16-.13-.34a1.16,1.16,0,0,1,1-.46H16c.55.12.68.34.74.89v3.86c0,.22.09.86.49,1s.52-.15.7-.33a13,13,0,0,0,2-3c.24-.49.43-1,.64-1.47a.76.76,0,0,1,.8-.55h3.34a1.2,1.2,0,0,1,.31,0c.55.09.7.33.55.89a8.1,8.1,0,0,1-1.32,2.3c-.55.76-1.16,1.5-1.72,2.3S22,16,22.61,16.63Z"/><path class="cls-1" d="M45,0A15,15,0,1,0,60,15,15,15,0,0,0,45,0Zm7.61,16.63a21.19,21.19,0,0,1,2,2.08,5.3,5.3,0,0,1,.74,1.08c.27.55,0,1.16-.46,1.19H51.87a2.36,2.36,0,0,1-2-.8c-.43-.43-.83-.89-1.23-1.35a2.36,2.36,0,0,0-.55-.49.63.63,0,0,0-1,.25A3.34,3.34,0,0,0,46.78,20c0,.74-.25.92-1,.95A7.75,7.75,0,0,1,41.41,20a9.58,9.58,0,0,1-2.94-2.76,37.21,37.21,0,0,1-3.9-6.93c-.24-.55-.06-.83.55-.86,1,0,2,0,3,0a.89.89,0,0,1,.83.61,19,19,0,0,0,2,3.77,3.93,3.93,0,0,0,.77.86c.37.25.61.16.8-.24a3.45,3.45,0,0,0,.18-.8,10.63,10.63,0,0,0-.06-2.76,1.18,1.18,0,0,0-1-1.1c-.31-.07-.25-.16-.13-.34a1.16,1.16,0,0,1,1-.46H46c.55.12.68.34.74.89v3.86c0,.22.09.86.49,1s.52-.15.7-.33a13,13,0,0,0,2-3c.24-.49.43-1,.64-1.47a.76.76,0,0,1,.8-.55h3.34a1.2,1.2,0,0,1,.31,0c.55.09.7.33.55.89a8.1,8.1,0,0,1-1.32,2.3c-.55.76-1.16,1.5-1.72,2.3S52,16,52.61,16.63Z"/><path d="M15,60A15,15,0,1,0,0,45,15,15,0,0,0,15,60ZM6.86,44.68,21.33,39.1c.67-.24,1.26.16,1,1.18L19.9,51.88c-.18.82-.67,1-1.35.63L14.8,49.75,13,51.49a1,1,0,0,1-.76.37L12.5,48l7-6.27c.31-.27-.07-.42-.47-.16L10.39,47l-3.7-1.15C5.89,45.61,5.87,45.06,6.86,44.68Z"/><path class="cls-1" d="M45,60A15,15,0,1,0,30,45,15,15,0,0,0,45,60ZM36.86,44.68,51.33,39.1c.67-.24,1.26.16,1,1.18L49.9,51.88c-.18.82-.67,1-1.35.63L44.8,49.75,43,51.49a1,1,0,0,1-.76.37L42.5,48l7-6.27c.31-.27-.07-.42-.47-.16L40.39,47l-3.7-1.15C35.89,45.61,35.87,45.06,36.86,44.68Z"/><path d="M17.87,75A2.87,2.87,0,1,1,15,72.13,2.86,2.86,0,0,1,17.87,75Z"/><path d="M21.71,69.92a2.81,2.81,0,0,0-1.63-1.63,4.72,4.72,0,0,0-1.6-.3c-.91,0-1.18-.06-3.48-.06s-2.57,0-3.48.06a4.72,4.72,0,0,0-1.6.3,2.81,2.81,0,0,0-1.63,1.63,4.72,4.72,0,0,0-.3,1.6c0,.91-.06,1.18-.06,3.48s0,2.57.06,3.48a4.47,4.47,0,0,0,.3,1.6,2.81,2.81,0,0,0,1.63,1.63,4.72,4.72,0,0,0,1.6.3c.91,0,1.18.06,3.48.06s2.57,0,3.48-.06a4.47,4.47,0,0,0,1.6-.3,2.79,2.79,0,0,0,1.63-1.63,4.72,4.72,0,0,0,.3-1.6c0-.91.06-1.18.06-3.48s0-2.57-.06-3.48A4.72,4.72,0,0,0,21.71,69.92ZM15,79.42A4.42,4.42,0,1,1,19.42,75,4.42,4.42,0,0,1,15,79.42Zm4.6-8a1,1,0,1,1,1-1A1,1,0,0,1,19.6,71.44Z"/><path d="M15,60A15,15,0,1,0,30,75,15,15,0,0,0,15,60Zm8.56,18.55a6.4,6.4,0,0,1-.4,2.09,4.35,4.35,0,0,1-2.52,2.52,6.29,6.29,0,0,1-2.09.4c-.92,0-1.21,0-3.55,0s-2.63,0-3.55,0a6.4,6.4,0,0,1-2.09-.4,4.35,4.35,0,0,1-2.52-2.52,6.29,6.29,0,0,1-.4-2.09c0-.92-.05-1.21-.05-3.55s0-2.63.05-3.55a6.4,6.4,0,0,1,.4-2.09,4.35,4.35,0,0,1,2.52-2.52,6.34,6.34,0,0,1,2.09-.4c.92,0,1.21,0,3.55,0s2.63,0,3.55,0a6.4,6.4,0,0,1,2.09.4,4.35,4.35,0,0,1,2.52,2.52,6.34,6.34,0,0,1,.4,2.09c0,.92.05,1.21.05,3.55S23.6,77.63,23.56,78.55Z"/><path class="cls-1" d="M47.87,75A2.87,2.87,0,1,1,45,72.13,2.86,2.86,0,0,1,47.87,75Z"/><path class="cls-1" d="M51.71,69.92a2.81,2.81,0,0,0-1.63-1.63,4.72,4.72,0,0,0-1.6-.3c-.91,0-1.18-.06-3.48-.06s-2.57,0-3.48.06a4.72,4.72,0,0,0-1.6.3,2.81,2.81,0,0,0-1.63,1.63,4.72,4.72,0,0,0-.3,1.6c0,.91-.06,1.18-.06,3.48s0,2.57.06,3.48a4.47,4.47,0,0,0,.3,1.6,2.81,2.81,0,0,0,1.63,1.63,4.72,4.72,0,0,0,1.6.3c.91,0,1.18.06,3.48.06s2.57,0,3.48-.06a4.47,4.47,0,0,0,1.6-.3,2.79,2.79,0,0,0,1.63-1.63,4.72,4.72,0,0,0,.3-1.6c0-.91.06-1.18.06-3.48s0-2.57-.06-3.48A4.72,4.72,0,0,0,51.71,69.92ZM45,79.42A4.42,4.42,0,1,1,49.42,75,4.42,4.42,0,0,1,45,79.42Zm4.6-8a1,1,0,1,1,1-1A1,1,0,0,1,49.6,71.44Z"/><path class="cls-1" d="M45,60A15,15,0,1,0,60,75,15,15,0,0,0,45,60Zm8.56,18.55a6.4,6.4,0,0,1-.4,2.09,4.35,4.35,0,0,1-2.52,2.52,6.29,6.29,0,0,1-2.09.4c-.92,0-1.21,0-3.55,0s-2.63,0-3.55,0a6.4,6.4,0,0,1-2.09-.4,4.35,4.35,0,0,1-2.52-2.52,6.29,6.29,0,0,1-.4-2.09c0-.92,0-1.21,0-3.55s0-2.63,0-3.55a6.4,6.4,0,0,1,.4-2.09,4.35,4.35,0,0,1,2.52-2.52,6.34,6.34,0,0,1,2.09-.4c.92,0,1.21,0,3.55,0s2.63,0,3.55,0a6.4,6.4,0,0,1,2.09.4,4.35,4.35,0,0,1,2.52,2.52,6.34,6.34,0,0,1,.4,2.09c0,.92,0,1.21,0,3.55S53.6,77.63,53.56,78.55Z"/><path d="M30,105a15,15,0,1,0-15,15h.26V108.32H12v-3.75h3.22V101.8c0-3.2,2-5,4.82-5A25.13,25.13,0,0,1,23,97v3.35H21c-1.55,0-1.86.74-1.86,1.82v2.39h3.72l-.48,3.76H19.14v11.1A15,15,0,0,0,30,105Z"/><path class="cls-1" d="M60,105a15,15,0,1,0-15,15h.26V108.32H42v-3.75h3.22V101.8c0-3.2,2-5,4.82-5A25.13,25.13,0,0,1,53,97v3.35H51c-1.55,0-1.86.74-1.86,1.82v2.39h3.72l-.48,3.76H49.14v11.1A15,15,0,0,0,60,105Z"/></svg>